HIERARCHY
ROOT hip
{
	OFFSET 0.000000 0.000000 0.000000
	CHANNELS 6 Xposition Yposition Zposition Xrotation Zrotation Yrotation 
	JOINT abdomen
	{
		OFFSET 0.000000 3.422050 0.000000
		CHANNELS 3 Xrotation Zrotation Yrotation 
		JOINT chest
		{
			OFFSET 0.000000 8.486693 -0.684411
			CHANNELS 3 Xrotation Zrotation Yrotation 
			JOINT neck
			{
				OFFSET 0.000000 10.266162 -0.273764
				CHANNELS 3 Xrotation Zrotation Yrotation 
				JOINT head
				{
					OFFSET 0.000000 3.148285 0.000000
					CHANNELS 3 Xrotation Zrotation Yrotation 
					End Site
					{
						OFFSET 0.000000 3.148289 0.000000
					}
				}
			}
			JOINT lCollar
			{
				OFFSET 3.422053 6.707223 -0.821293
				CHANNELS 3 Yrotation Zrotation Xrotation 
				JOINT lShldr
				{
					OFFSET 3.285171 0.000000 0.000000
					CHANNELS 3 Zrotation Yrotation Xrotation 
					JOINT lForeArm
					{
						OFFSET 10.129278 0.000000 0.000000
						CHANNELS 3 Yrotation Zrotation Xrotation 
						JOINT lHand
						{
							OFFSET 8.486692 0.000000 0.000000
							CHANNELS 3 Zrotation Yrotation Xrotation 
							End Site
							{
								OFFSET 4.106464 0.000000 0.000000
							}
						}
					}
				}
			}
			JOINT rCollar
			{
				OFFSET -3.558935 6.707223 -0.821293
				CHANNELS 3 Yrotation Zrotation Xrotation 
				JOINT rShldr
				{
					OFFSET -3.148289 0.000000 0.000000
					CHANNELS 3 Zrotation Yrotation Xrotation 
					JOINT rForeArm
					{
						OFFSET -10.266159 0.000000 0.000000
						CHANNELS 3 Yrotation Zrotation Xrotation 
						JOINT rHand
						{
							OFFSET -8.349810 0.000000 0.000000
							CHANNELS 3 Zrotation Yrotation Xrotation 
							End Site
							{
								OFFSET -4.106464 0.000000 0.000000
							}
						}
					}
				}
			}
		}
	}
	JOINT lThigh
	{
		OFFSET 5.338403 -1.642589 1.368821
		CHANNELS 3 Xrotation Zrotation Yrotation 
		JOINT lShin
		{
			OFFSET -2.053232 -20.121670 0.000000
			CHANNELS 3 Xrotation Zrotation Yrotation 
			JOINT lFoot
			{
				OFFSET 0.000000 -19.300380 -1.231939
				CHANNELS 3 Xrotation Yrotation Zrotation 
				End Site
				{
					OFFSET 0.000000 -2.463878 4.653993
				}
			}
		}
	}
	JOINT rThigh
	{
		OFFSET -5.338403 -1.642589 1.368821
		CHANNELS 3 Xrotation Zrotation Yrotation 
		JOINT rShin
		{
			OFFSET 2.053232 -20.121670 0.000000
			CHANNELS 3 Xrotation Zrotation Yrotation 
			JOINT rFoot
			{
				OFFSET 0.000000 -19.300380 -1.231939
				CHANNELS 3 Xrotation Yrotation Zrotation 
				End Site
				{
					OFFSET 0.000000 -2.463878 4.653993
				}
			}
		}
	}
}
MOTION
Frames: 8
Frame Time: 0.033264
8.834011 9.084629 15.322063 70.999847 -21.000031 -0.000472 51.188686 -1.417365 -0.793336 -34.590206 -5.255170 -0.256329 -24.006269 0.000000 0.000000 2.564597 -2.887836 -28.071667 7.724662 -29.677500 17.187838 -23.666784 -25.777302 -47.555176 -128.453262 1.874019 54.141933 32.261158 -41.903313 11.497700 -1.724995 19.572210 14.600421 19.337530 37.438305 -53.484032 107.387466 -9.400847 52.794052 6.820841 4.826651 -24.877907 12.032890 8.138829 14.504264 -1.300339 -4.218767 28.752522 59.004242 -6.481044 4.729717 -112.703491 -64.296371 32.503788 105.365021 -0.985562 -1.647649 17.525291 -1.722353 -4.886950 
8.803856 9.098293 15.264344 70.999847 -21.000031 -0.000472 51.188686 -1.417365 -0.793336 -34.590206 -5.255170 -0.256329 -24.006269 0.000000 0.000000 2.395982 -2.910165 -27.881956 7.643078 -29.265028 16.837597 -23.666784 -25.777302 -47.555172 -128.453262 1.874019 54.141933 32.072128 -41.460201 11.504559 -1.742933 19.278236 14.315832 19.337530 37.438305 -53.484024 107.387466 -9.400845 52.794052 6.936712 4.586285 -25.110302 11.701413 8.262254 14.492719 -0.655721 -4.272523 28.688055 58.698826 -6.601348 4.649587 -112.703491 -64.296371 32.503788 105.365021 -0.985562 -1.647649 17.525291 -1.722353 -4.886950 
8.773700 9.111957 15.206626 70.999847 -21.000031 -0.000472 51.188686 -1.417365 -0.793336 -34.590206 -5.255170 -0.256329 -24.006269 0.000000 0.000000 2.227229 -2.931943 -27.692110 7.564620 -28.851706 16.489065 -23.666784 -25.777302 -47.555172 -128.453262 1.874019 54.141933 31.884266 -41.016685 11.509433 -1.762396 18.984159 14.031469 19.337530 37.438305 -53.484024 107.387466 -9.400845 52.794052 7.053578 4.346273 -25.343220 11.369650 8.385667 14.480443 -0.009973 -4.325635 28.622877 58.393059 -6.721277 4.568760 -112.703491 -64.296371 32.503788 105.365021 -0.985562 -1.647649 17.525291 -1.722353 -4.886950 
8.743545 9.125621 15.148907 70.999847 -21.000031 -0.000472 51.188686 -1.417365 -0.793336 -34.590206 -5.255170 -0.256329 -24.006269 0.000000 0.000000 2.058341 -2.953171 -27.502127 7.489261 -28.437567 16.142212 -23.666784 -25.777302 -47.555172 -128.453262 1.874019 54.141933 31.697563 -40.572788 11.512364 -1.783378 18.689997 13.747326 19.337530 37.438305 -53.484024 107.387466 -9.400845 52.794052 7.171444 4.106628 -25.576672 11.037608 8.509065 14.467436 0.636865 -4.378091 28.557001 58.086922 -6.840822 4.487238 -112.703491 -64.296371 32.503788 105.365021 -0.985562 -1.647649 17.525291 -1.722353 -4.886950 
8.713389 9.139284 15.091188 70.999847 -21.000031 -0.000472 51.188686 -1.417365 -0.793336 -34.590206 -5.255170 -0.256329 -24.006269 0.000000 0.000000 1.889323 -2.973846 -27.312019 7.416968 -28.022652 15.796995 -23.666784 -25.777302 -47.555172 -128.453262 1.874019 54.141933 31.511959 -40.128536 11.513387 -1.805876 18.395761 13.463387 19.337530 37.438305 -53.484024 107.387466 -9.400845 52.794052 7.290305 3.867356 -25.810648 10.705287 8.632437 14.453694 1.284755 -4.429876 28.490425 57.780415 -6.959975 4.405022 -112.703491 -64.296371 32.503788 105.365021 -0.985562 -1.647649 17.525291 -1.722353 -4.886950 
8.683233 9.152948 15.033469 70.999847 -21.000031 -0.000472 51.188686 -1.417365 -0.793336 -34.590206 -5.255170 -0.256329 -24.006269 0.000000 0.000000 1.720176 -2.993967 -27.121778 7.347711 -27.606976 15.453373 -23.666784 -25.777302 -47.555172 -128.453262 1.874019 54.141933 31.327429 -39.683941 11.512527 -1.829884 18.101471 13.179648 19.337530 37.438305 -53.484024 107.387466 -9.400845 52.794052 7.410161 3.628467 -26.045156 10.372692 8.755781 14.439221 1.933659 -4.480980 28.423174 57.473549 -7.078733 4.322114 -112.703491 -64.296371 32.503788 105.365021 -0.985562 -1.647649 17.525291 -1.722353 -4.886950 
8.653078 9.166613 14.975751 70.999847 -21.000031 -0.000472 51.188686 -1.417365 -0.793336 -34.590206 -5.255170 -0.256329 -24.006269 0.000000 0.000000 1.550904 -3.013534 -26.931410 7.281463 -27.190588 15.111316 -23.666784 -25.777302 -47.555172 -128.453262 1.874019 54.141933 31.143929 -39.239029 11.509824 -1.855395 17.807131 12.896095 19.337530 37.438305 -53.484024 107.387466 -9.400845 52.794052 7.531019 3.389975 -26.280214 10.039821 8.879084 14.424007 2.583535 -4.531387 28.355253 57.166336 -7.197090 4.238516 -112.703491 -64.296371 32.503788 105.365021 -0.985562 -1.647649 17.525291 -1.722353 -4.886950 
8.622923 9.180276 14.918032 70.999847 -21.000031 -0.000472 51.188686 -1.417365 -0.793336 -34.590206 -5.255170 -0.256329 -24.006268 0.000000 0.000000 1.381513 -3.032546 -26.740932 7.218194 -26.773514 14.770782 -23.666784 -25.777302 -47.555172 -128.453262 1.874019 54.141933 30.961432 -38.793816 11.505303 -1.882407 17.512774 12.612726 19.337530 37.438305 -53.484024 107.387466 -9.400845 52.794052 7.652872 3.151887 -26.515804 9.706684 9.002349 14.408066 3.234343 -4.581087 28.286667 56.858765 -7.315038 4.154230 -112.703491 -64.296371 32.503788 105.365021 -0.985562 -1.647649 17.525291 -1.722353 -4.886950 
